PathFileType	4	(X/Y/Z)	C:/Users/beibeiliu/ov580/test_trc/User1\sequence.27_training_dense_left.trc
DataRate	CameraRate	NumFrames	NumMarkers	Units	OrigDataRate	OrigDataStartFrame	OrigNumFrames
120	120	17	19	mm	120	162	259
Frame#	Time	ThumbCMC			ThumbMCP			ThumbIP			ThumbTip			IndexMCP			IndexPIP			IndexTip			MiddleMCP			MiddlePIP			MiddleTip			RingMCP			RingPIP			RingTip			PinkyMCP			PinkyPIP			PinkyTip			BackHand1			BackHand2			BackHand3	
		X0	Y0	Z0	X1	Y1	Z1	X2	Y2	Z2	X3	Y3	Z3	X4	Y4	Z4	X5	Y5	Z5	X6	Y6	Z6	X7	Y7	Z7	X8	Y8	Z8	X9	Y9	Z9	X10	Y10	Z10	X11	Y11	Z11	X12	Y12	Z12	X13	Y13	Z13	X14	Y14	Z14	X15	Y15	Z15	X16	Y16	Z16	X17	Y17	Z17	X18	Y18	Z18	
161	1.34167	-192.656	41.0812	67.273	-186.753	66.4309	43.2965	-181.352	76.3067	17.2947	-175.398	90.2136	-2.76836	-179.45	13.6251	-16.0739	-161.185	17.1594	-39.3658	-129.156	27.9205	-48.6418	-175.345	-20.2922	-11.5618	-171.053	-26.9511	-40.2406	-166.73	-34.5361	-68.5915	-152.586	-34.3618	-4.27392	-144.052	-34.0387	-30.5355	-127.628	-35.4988	-54.18	-126.057	-32.535	21.5011	-109.364	-23.3848	5.04783	-90.647	-10.3864	-10.1108	-171.876	-27.2324	49.2346	-177.004	-25.5163	83.277	-195.355	-1.48255	58.8144	
162	1.35	-193.132	40.2458	65.9197	-187.032	64.7185	41.522	-182.732	77.8157	19.7024	-175.352	87.3911	-0.453736	-179.789	13.0435	-16.8367	-153.117	17.5139	-39.7441	-125.674	32.4496	-43.1733	-176.998	-21.6132	-14.9332	-174.398	-24.5954	-43.974	-168.944	-31.148	-69.8106	-153.223	-31.1954	-7.20371	-141.742	-33.9996	-29.9662	-127.869	-32.9716	-51.5959	-124.93	-31.1376	17.8064	-106.248	-19.9102	5.79213	-91.1081	3.23156	-7.64793	-172.768	-27.4546	51.8541	-179.12	-24.2669	83.1078	-198.988	2.97382	60.7516	
163	1.35833	-194.529	42.1495	64.3514	-187.316	63.4458	44.137	-183.093	76.758	14.5375	-175.084	88.3658	-1.36087	-177.86	12.7937	-16.9736	-152.24	18.8904	-38.3708	-126.598	34.206	-37.7999	-177.866	-19.936	-15.3964	-171.939	-25.8217	-40.0467	-168.369	-29.4649	-68.9907	-153.513	-31.5618	-3.32149	-143.82	-31.9443	-29.4791	-128.707	-27.9581	-53.9113	-128.146	-28.2653	18.2298	-109.463	-14.8352	5.03128	-96.5595	7.62468	-0.691799	-174.069	-28.7682	52.7512	-181.115	-21.0011	85.4066	-198.355	3.86191	61.7492	
164	1.36667	-193.396	40.816	63.5208	-186.984	63.5396	42.8752	-181.245	72.752	15.3152	-175.247	87.4007	-3.82099	-177.458	14.6446	-19.5739	-153.003	23.0383	-38.2068	-126.626	37.4311	-31.3589	-178.994	-17.9642	-14.5393	-171.83	-24.3699	-42.9721	-165.554	-31.1549	-71.9197	-153.725	-30.9833	-5.26995	-141.018	-33.9052	-30.4542	-128.362	-26.8462	-51.1949	-126.784	-29.6512	19.9593	-110.064	-9.29953	5.55169	-101.595	19.1282	3.70489	-172.42	-27.5871	52.4355	-178.851	-23.978	87.4993	-198.595	1.58536	57.8212	
165	1.375	-194.81	42.252	62.4078	-186.893	61.9133	40.904	-181.879	73.4311	13.099	-172.748	84.095	-6.5893	-178.79	14.5658	-17.0348	-147.895	22.6355	-34.9053	-122.968	38.3991	-24.0589	-176.028	-20.678	-16.0323	-170.884	-24.374	-45.7753	-166.14	-27.1389	-72.9001	-155.273	-28.9032	-7.60208	-141.032	-30.8343	-34.2146	-126.676	-25.5489	-52.3694	-127.494	-27.3883	16.3134	-107.287	-11.0214	9.37858	-106.532	19.2402	12.8977	-174.402	-30.1715	52.1155	-182.024	-23.1365	82.9652	-197.859	-1.27329	58.8738	
166	1.38333	-194.974	44.0222	62.4656	-188.309	65.6509	40.4983	-184.24	76.8821	12.684	-171.551	81.0711	-6.83124	-177.86	15.9733	-16.3422	-147.858	26.024	-34.0496	-123.506	46.1673	-19.9465	-177.273	-20.2326	-19.365	-170.72	-22.8788	-45.6774	-163.999	-28.2329	-73.5334	-153.262	-33.5143	-5.0807	-141.451	-29.9955	-31.7794	-122.493	-26.7556	-50.2739	-124.033	-28.3555	17.0672	-111.061	-4.41032	10.5839	-108.88	22.4295	20.5778	-174.572	-30.3379	52.4099	-181.932	-20.7419	84.3151	-198.814	3.89317	56.2472	
167	1.39167	-194.652	44.4537	65.7912	-187.796	64.3924	37.7151	-184.051	77.0558	15.5426	-172.681	85.2863	-8.0165	-175.872	17.5697	-20.826	-146.138	27.4326	-32.9993	-122.973	44.0274	-15.4374	-175.536	-20.5054	-18.1688	-169.769	-21.7791	-43.526	-160.866	-28.7949	-73.189	-155.559	-29.8617	-4.80282	-140.142	-30.8242	-32.71	-121.226	-25.4461	-52.7953	-129.058	-28.9322	16.3947	-108.986	-7.30585	11.5661	-110.97	22.1019	24.2493	-175.523	-29.8156	49.5098	-180.618	-21.3344	84.137	-198.29	3.89889	55.4024	
168	1.4	-192.538	42.4187	61.7056	-186.967	65.5778	41.9091	-180.858	73.9419	13.1711	-173.18	87.6386	-7.28235	-176.63	18.3107	-19.3077	-145.605	27.6264	-32.6825	-121.66	42.4257	-15.3631	-176.6	-17.5643	-19.6001	-169.464	-21.3725	-44.0412	-161.078	-27.1631	-75.5308	-152.671	-30.1182	-9.91693	-141.136	-27.4172	-34.2845	-124.268	-23.8304	-51.1046	-128.418	-29.8249	16.5586	-111.133	-5.01985	9.37644	-115.654	19.9103	21.8835	-175.474	-27.409	51.2835	-179.369	-22.575	83.5503	-200.456	3.86957	58.0122	
169	1.40833	-194.285	46.7518	65.618	-185.544	62.7896	38.2098	-180.698	72.5831	12.3595	-172.518	85.154	-4.87098	-177.661	17.9352	-19.2755	-150.219	28.8983	-35.2624	-125.306	42.8473	-21.2863	-176.376	-19.6189	-16.8296	-171.264	-18.605	-46.6369	-162.767	-24.2501	-71.2821	-156.372	-29.8268	-5.62835	-140.94	-31.9581	-31.9884	-122.855	-26.9935	-55.5221	-131.859	-29.9798	13.89	-109.627	-11.8717	7.77801	-110.009	17.023	17.4933	-176.533	-25.35	51.1471	-183.752	-20.6623	84.6597	-199.429	2.19163	57.8172	
170	1.41667	-194.986	45.2714	61.1823	-188.351	68.4363	40.1468	-182.776	76.2587	16.6733	-172.458	86.3495	-7.71218	-177.254	16.2676	-21.6614	-153.486	23.8101	-37.7998	-124.8	39.068	-29.6999	-177.442	-19.8456	-19.56	-173.48	-18.8198	-47.4696	-161.47	-27.3678	-70.8752	-154.652	-32.1157	-10.3062	-143.199	-30.6098	-36.0727	-128.732	-27.3924	-53.1686	-132.32	-35.5917	15.8479	-115.425	-19.8613	1.30697	-106.461	12.5238	4.94708	-174.422	-27.82	51.4075	-182.085	-23.2637	84.0287	-199.747	2.39812	58.5474	
171	1.425	-196.212	45.4563	62.8469	-187.875	65.0131	39.6655	-182.625	73.4939	12.8034	-175.321	84.8495	-4.19481	-180.262	15.2738	-23.1006	-158.094	17.902	-40.9172	-128.392	32.2163	-44.0362	-179.096	-18.8689	-19.6808	-173.912	-19.7552	-43.5163	-165.479	-27.3075	-74.1581	-159.519	-29.9256	-9.10989	-148.316	-32.7698	-32.5295	-132.021	-30.5698	-58.5731	-135.042	-36.3509	15.6472	-116.326	-26.4099	-3.77368	-103.614	-4.8386	-13.3944	-175.446	-28.4417	46.3437	-184.049	-21.6199	84.5717	-200.722	6.8285	57.1836	
172	1.43333	-196.349	45.2744	62.1095	-191.708	69.3428	39.9943	-185.902	75.1488	12.2742	-177.879	90.3899	-6.25321	-184.185	15.7834	-19.8722	-163.618	17.0346	-44.044	-139.004	28.7174	-54.9237	-178.359	-18.5466	-17.9772	-174.964	-19.2978	-46.5693	-166.54	-28.246	-77.1544	-160.402	-29.5923	-13.3876	-149.33	-32.613	-37.819	-134.645	-33.5151	-58.106	-132.701	-36.9053	14.7806	-116.286	-29.5663	-5.1824	-99.4492	-17.539	-24.5583	-178.559	-24.1549	44.6957	-183.06	-22.7894	80.1075	-198.921	2.518	57.6186	
173	1.44167	-195.191	42.42	60.4781	-189.883	64.9457	36.835	-187.154	78.5084	10.4448	-178.356	87.843	-6.47862	-182.866	14.943	-20.6093	-163.024	19.9622	-47.8381	-138.715	23.7131	-58.2055	-179.45	-17.6169	-19.8302	-175.703	-20.4651	-49.8398	-169.669	-26.5994	-79.0273	-161.89	-28.9055	-10.1748	-151.279	-36.2506	-35.928	-141.913	-32.289	-61.9993	-134.925	-36.6411	10.522	-119.339	-32.3873	-6.81295	-103.388	-29.2013	-27.3334	-180.829	-23.772	46.2318	-182.78	-20.7256	76.3945	-202.209	6.04348	52.6739	
174	1.45	-195.19	43.432	59.4789	-191.124	64.0231	36.0676	-188.481	78.9528	10.1511	-178.953	85.1119	-7.93484	-185.804	18.5792	-21.0373	-163.524	18.401	-46.388	-139.661	25.519	-62.1845	-180.656	-17.0371	-21.2799	-175.306	-21.2473	-50.9581	-170.176	-27.6633	-74.6284	-161.623	-32.8733	-11.9228	-155.862	-32.9859	-39.8	-144.121	-35.319	-62.4951	-135.666	-38.2707	10.7441	-124.155	-36.068	-7.14307	-108.684	-35.7394	-28.258	-179.219	-27.4234	43.6573	-183.678	-22.3872	77.4672	-201.594	5.88076	54.0297	
175	1.45833	-195.703	43.8874	62.7154	-193.479	68.4167	36.3991	-187.147	76.9392	11.5793	-180.477	91.8552	-7.50257	-183.5	14.9756	-22.0387	-170.733	19.7954	-45.7891	-146.612	24.9302	-64.6455	-181.136	-17.5906	-22.6939	-176.578	-21.2743	-46.7174	-171.011	-27.3617	-78.5918	-163.739	-30.7512	-12.2047	-157.898	-32.5135	-40.5466	-148.187	-34.6847	-61.1336	-135.733	-40.3213	10.5371	-124.541	-39.8839	-5.75297	-112.583	-42.8159	-29.0875	-179.242	-23.1477	47.54	-184.335	-19.4457	76.549	-201.418	6.35561	54.8638	
176	1.46667	-196.151	44.4798	57.6623	-192.833	68.5767	36.0385	-187.265	78.6501	12.206	-180.107	91.0826	-7.14933	-185.072	13.9432	-22.1177	-168.739	14.914	-49.047	-152.648	18.5786	-66.8585	-180.496	-17.144	-23.3316	-176.676	-18.3625	-48.0159	-170.944	-25.3557	-80.3766	-162.105	-30.8956	-12.3167	-154.923	-35.6034	-38.4915	-144.594	-33.3627	-66.0253	-138.531	-38.2403	9.05578	-120.951	-43.3393	-6.53608	-111.414	-48.1719	-27.0866	-178.035	-25.358	45.855	-183.178	-21.4871	76.4921	-202.348	5.63404	51.0018	
177	1.475	-199.057	45.9265	58.6696	-193.187	68.4644	35.2061	-188.138	77.5635	13.0674	-179.216	88.204	-10.8059	-189.007	13.3841	-26.2687	-176.534	10.725	-49.2831	-160.745	13.1558	-73.7346	-179.84	-16.4124	-21.4711	-173.191	-20.595	-52.8682	-164.097	-25.0246	-78.6167	-162.603	-28.4306	-15.4259	-151.591	-33.4243	-38.8535	-138.049	-30.8079	-66.2058	-136.65	-40.1382	14.9762	-122.242	-45.2338	-2.78535	-110.047	-53.1954	-25.5527	-177.719	-27.0758	41.5357	-180.852	-23.0827	78.9621	-201.65	2.59248	53.2752	
